<?xml version="1.0" encoding="utf-8"?>
<!-- Generator: Adobe Illustrator 16.0.0, SVG Export Plug-In . SVG Version: 6.00 Build 0)  -->
<!DOCTYPE svg PUBLIC "-//W3C//DTD SVG 1.1//EN" "http://www.w3.org/Graphics/SVG/1.1/DTD/svg11.dtd">
<svg version="1.1" id="Layer_1" xmlns="http://www.w3.org/2000/svg" xmlns:xlink="http://www.w3.org/1999/xlink" x="0px" y="0px"
	 width="60px" height="60px" viewBox="0 0 60 60" enable-background="new 0 0 60 60" xml:space="preserve">
<g>
	<path fill="#FFFFFF" d="M16.279,59.612c-8.61,0-15.614-7.005-15.614-15.614V16.227c0-8.609,7.004-15.614,15.614-15.614h27.772
		c8.609,0,15.614,7.004,15.614,15.614v27.771c0,8.609-7.005,15.614-15.614,15.614H16.279z"/>
	<path fill="#EEEEEE" d="M44.051,1.113c8.334,0,15.114,6.78,15.114,15.114v27.771c0,8.334-6.78,15.114-15.114,15.114H16.279
		c-8.334,0-15.114-6.78-15.114-15.114V16.227c0-8.334,6.78-15.114,15.114-15.114H44.051 M44.051,0.113H16.279
		c-8.863,0-16.114,7.251-16.114,16.114v27.771c0,8.863,7.251,16.114,16.114,16.114h27.772c8.863,0,16.114-7.251,16.114-16.114
		V16.227C60.165,7.364,52.914,0.113,44.051,0.113L44.051,0.113z"/>
</g>
<g>
	<path fill="#FE7C72" d="M29.692,28.806c-0.196-1.977-0.916-3.804-2.018-5.338c-1.41-1.963-3.444-3.448-5.812-4.161
		c-0.193-0.06-0.39-0.032-0.587-0.08C20.441,19.026,19.571,19,18.675,19h-6.862c-0.708,0-1.35,0.186-1.814,0.616
		c-0.464,0.43-0.719,0.985-0.719,1.642c0,1.185,1.038,2.127,2.187,2.31v7.193v7.83c0,1.287,0.952,2.409,2.24,2.409h4.968
		c3.108,0,5.922-1.295,7.934-3.364c1.943-1.995,3.139-4.723,3.139-7.72C29.748,29.543,29.729,29.17,29.692,28.806z M21.923,35.3
		c-0.947,0.583-2.061,0.939-3.249,0.939h-2.283v-2.901v-9.626v-0.115h2.167h0.116c3.441,0,6.254,2.829,6.254,6.3
		c0,1.116-0.291,2.182-0.799,3.09C23.602,33.93,22.84,34.737,21.923,35.3z"/>
	<path fill="#FE7C72" d="M48.214,29.386c-0.09-0.263-0.19-0.519-0.307-0.768c-0.262-0.583-0.589-1.126-0.963-1.622
		c-0.898-1.189-2.085-2.11-3.42-2.696c-0.054-0.025-0.108-0.048-0.163-0.069c-1.871-0.778-4.022-0.904-6.081-0.198
		c-0.512,0.174-0.996,0.396-1.453,0.653c-0.289,0.163-0.569,0.343-0.833,0.537c-0.932,0.681-1.702,1.538-2.286,2.503
		c-1.271,2.106-1.639,4.739-0.783,7.239c0.435,1.27,1.14,2.373,2.029,3.266c1.243,1.251,2.846,2.092,4.574,2.411
		c0.578,0.105,1.169,0.153,1.766,0.14c0.853-0.021,1.717-0.17,2.563-0.461c1.038-0.354,1.962-0.892,2.752-1.558
		c0.063-0.054,0.123-0.105,0.182-0.159c0.242-0.216,0.472-0.444,0.685-0.686c0.631-0.705,1.141-1.507,1.508-2.372
		C48.789,33.656,48.93,31.477,48.214,29.386z M43.452,33.938c-0.053,0.1-0.108,0.198-0.171,0.293
		c-0.261,0.412-0.604,0.775-1.013,1.063c-0.289,0.206-0.611,0.371-0.964,0.491c-0.347,0.12-0.697,0.185-1.048,0.202
		c-0.62,0.031-1.231-0.092-1.779-0.345c-0.756-0.347-1.396-0.937-1.794-1.709c-0.086-0.166-0.171-0.34-0.231-0.521
		c-0.236-0.691-0.287-1.404-0.123-2.069v-0.001c0-0.597,0.419-1.153,0.813-1.621c0.432-0.514,1.008-0.921,1.688-1.152
		c0.24-0.082,0.484-0.14,0.729-0.172c0.009-0.001,0.021-0.003,0.03-0.005c0.984-0.125,1.965,0.143,2.737,0.709
		c0.402,0.295,0.752,0.673,1.019,1.118c0.06,0.101,0.115,0.204,0.165,0.311c0.064,0.131,0.121,0.269,0.17,0.411
		c0.152,0.445,0.217,0.899,0.204,1.343C43.867,32.865,43.717,33.43,43.452,33.938z"/>
	<path fill="#2A3259" d="M50.078,20.625c-0.852-0.848-2.231-0.844-3.079,0.009l-3.492,3.685c1.357,0.594,2.533,1.528,3.419,2.694
		l3.161-3.308C50.936,22.852,50.931,21.473,50.078,20.625z"/>
	<path fill="#2A3259" d="M43.51,30.529l-1.111,1.163l-1.273,1.333c-0.848,0.854-2.227,0.857-3.079,0.008l-1.7-1.689v-0.001
		l-0.003-0.002l-3.634-3.614l-0.012-0.012l-0.594-0.591c-0.853-0.849-0.857-2.228-0.008-3.08c0.848-0.853,2.227-0.857,3.078-0.008
		l0.641,0.637l0.013,0.013l3.708,3.688l0.024,0.023l0.013,0.013l0.018-0.018c0.984-0.125,1.963,0.143,2.735,0.709
		c0.403,0.296,0.752,0.674,1.018,1.119C43.403,30.318,43.459,30.422,43.51,30.529z"/>
	<path fill="#FFFFFF" d="M43.52,30.52l-0.01,0.009c-0.051-0.106-0.106-0.21-0.167-0.31c0.003-0.004,0.006-0.008,0.011-0.012
		C43.413,30.309,43.469,30.413,43.52,30.52z"/>
</g>
</svg>
