<?xml version="1.0" encoding="utf-8"?>
<!-- Generator: Adobe Illustrator 16.0.0, SVG Export Plug-In . SVG Version: 6.00 Build 0)  -->
<!DOCTYPE svg PUBLIC "-//W3C//DTD SVG 1.1//EN" "http://www.w3.org/Graphics/SVG/1.1/DTD/svg11.dtd">
<svg version="1.1" id="Layer_1" xmlns="http://www.w3.org/2000/svg" xmlns:xlink="http://www.w3.org/1999/xlink" x="0px" y="0px"
	 width="200px" height="200px" viewBox="0 0 200 200" enable-background="new 0 0 200 200" xml:space="preserve">
<g>
	<path fill="#FE7C72" d="M98.663,94.813c-0.853-8.587-3.979-16.526-8.765-23.188c-6.125-8.525-14.962-14.977-25.245-18.072
		c-0.839-0.258-1.692-0.139-2.551-0.344c-3.624-0.875-7.403-0.987-11.296-0.987H21.001c-3.075,0-5.862,0.805-7.878,2.678
		C11.108,56.765,10,59.177,10,62.029c0,5.148,4.506,9.24,9.498,10.032v31.244v34.011c0,5.588,4.134,10.463,9.73,10.463h21.578
		c13.503,0,25.725-5.623,34.466-14.611c8.436-8.669,13.633-20.516,13.633-33.532C98.905,98.016,98.822,96.396,98.663,94.813z
		 M64.918,123.022c-4.118,2.529-8.955,4.076-14.113,4.076h-9.914V114.5V72.689v-0.501h9.411h0.502
		c14.948,0,27.169,12.286,27.169,27.366c0,4.85-1.266,9.478-3.471,13.421C72.21,117.066,68.899,120.579,64.918,123.022z"/>
	<path fill="#FE7C72" d="M179.109,97.333c-0.384-1.141-0.825-2.253-1.326-3.338c-1.141-2.532-2.56-4.892-4.187-7.045
		c-3.899-5.164-9.056-9.164-14.854-11.71c-0.235-0.107-0.471-0.207-0.705-0.3c-8.13-3.38-17.473-3.929-26.415-0.862
		c-2.226,0.755-4.329,1.718-6.312,2.838c-1.255,0.706-2.474,1.491-3.622,2.332c-4.044,2.959-7.396,6.682-9.927,10.875
		c-5.52,9.149-7.117,20.58-3.401,31.441c1.89,5.513,4.948,10.305,8.813,14.185c5.399,5.435,12.358,9.086,19.868,10.477
		c2.51,0.457,5.078,0.664,7.666,0.606c3.708-0.094,7.459-0.742,11.14-2.004c4.507-1.542,8.521-3.873,11.952-6.768
		c0.271-0.23,0.534-0.457,0.791-0.693c1.048-0.933,2.046-1.925,2.973-2.974c2.739-3.065,4.949-6.546,6.548-10.305
		C181.613,115.88,182.22,106.411,179.109,97.333z M158.43,117.1c-0.228,0.437-0.471,0.863-0.742,1.276
		c-1.134,1.791-2.625,3.368-4.4,4.616c-1.254,0.892-2.651,1.61-4.186,2.132c-1.505,0.519-3.03,0.806-4.55,0.878
		c-2.694,0.135-5.349-0.401-7.73-1.498c-3.28-1.505-6.062-4.065-7.795-7.425c-0.37-0.721-0.736-1.477-1-2.261
		c-1.027-3.002-1.251-6.098-0.537-8.985v-0.007c0-2.588,1.82-5.006,3.531-7.039c1.877-2.232,4.377-4,7.33-5.006
		c1.04-0.357,2.106-0.606,3.161-0.75c0.042-0.006,0.091-0.014,0.135-0.021c4.277-0.542,8.53,0.621,11.889,3.081
		c1.748,1.283,3.268,2.923,4.423,4.856c0.256,0.436,0.5,0.884,0.721,1.35c0.277,0.569,0.521,1.169,0.735,1.782
		c0.663,1.932,0.941,3.907,0.883,5.832C160.234,112.443,159.578,114.897,158.43,117.1z"/>
	<path fill="#2A3259" d="M187.211,59.278c-3.702-3.683-9.692-3.668-13.376,0.037l-15.171,16.006
		c5.896,2.581,11.006,6.638,14.854,11.704l13.73-14.368C190.932,68.95,190.915,62.962,187.211,59.278z"/>
	<path fill="#2A3259" d="M158.681,102.298l-4.826,5.05l-5.534,5.788c-3.68,3.708-9.671,3.722-13.373,0.035l-7.382-7.337v-0.004
		l-0.016-0.011l-15.785-15.696l-0.052-0.053l-2.574-2.565c-3.707-3.687-3.725-9.676-0.037-13.378
		c3.681-3.707,9.672-3.723,13.374-0.037l2.78,2.765l0.057,0.058l16.104,16.016l0.104,0.103l0.061,0.056l0.073-0.078
		c4.276-0.543,8.524,0.622,11.881,3.08c1.753,1.286,3.271,2.927,4.422,4.859C158.219,101.383,158.46,101.835,158.681,102.298z"/>
	<path fill="#FFFFFF" d="M158.723,102.256l-0.042,0.042c-0.221-0.463-0.462-0.915-0.725-1.348c0.01-0.016,0.027-0.036,0.047-0.05
		C158.259,101.341,158.5,101.794,158.723,102.256z"/>
</g>
</svg>
